<svg width="1018" height="1006" viewBox="0 0 1018 1006" fill="none" xmlns="http://www.w3.org/2000/svg">
<path d="M249.47 47.974C76.9661 -3.67068 2.42742 59.1548 37.0347 113.994C71.6419 168.833 257.989 88.9703 266.507 189.065C275.026 289.16 54.6045 246.034 14.1406 228.997" stroke="black" stroke-width="57.5013"/>
<path d="M355.513 114.138L558.873 157.956" stroke="black" stroke-width="60.6708"/>
<path d="M351.918 0.660156V282.667" stroke="black" stroke-width="60.6708"/>
<path d="M555.276 0.660156V282.667" stroke="black" stroke-width="60.6708"/>
<path d="M779.176 30.4033C857.396 30.4033 913.02 84.2098 913.02 141.664C913.019 199.118 857.395 252.924 779.176 252.924C700.956 252.924 645.333 199.118 645.333 141.664C645.333 84.2098 700.956 30.4034 779.176 30.4033Z" stroke="black" stroke-width="59.4859"/>
<path d="M249.47 410.641C76.9661 358.996 2.42742 421.822 37.0347 476.661C71.6419 531.5 257.989 451.637 266.507 551.732C275.026 651.827 54.6045 608.701 14.1406 591.664" stroke="black" stroke-width="57.5013"/>
<path d="M355.508 476.81L558.868 520.627" stroke="black" stroke-width="60.6708"/>
<path d="M351.913 363.333V645.34" stroke="black" stroke-width="60.6708"/>
<path d="M555.271 363.333V645.34" stroke="black" stroke-width="60.6708"/>
<path d="M779.171 393.076C857.391 393.076 913.015 446.882 913.015 504.336C913.014 561.791 857.391 615.596 779.171 615.596C700.951 615.596 645.328 561.791 645.328 504.336C645.328 446.882 700.951 393.076 779.171 393.076Z" stroke="black" stroke-width="59.4859"/>
<path d="M131.88 753.217H178.652V997.353H131.88V753.217ZM22.0366 731.603H288.496V772.705H22.0366V731.603Z" fill="black"/>
<path d="M374.675 851.367H482.747C498.337 851.367 510.621 847.824 519.597 840.737C528.81 833.651 533.416 823.966 533.416 811.682C533.416 799.162 528.81 789.477 519.597 782.627C510.621 775.54 498.337 771.997 482.747 771.997H367.943L388.848 745.776V997.353H342.076V731.603H486.999C505.66 731.603 521.96 735.028 535.897 741.878C550.07 748.492 561.054 757.823 568.85 769.871C576.881 781.682 580.897 795.619 580.897 811.682C580.897 827.273 576.881 841.092 568.85 853.139C561.054 864.95 550.07 874.281 535.897 881.131C521.96 887.746 505.66 891.053 486.999 891.053H374.675V851.367ZM427.116 872.982H482.038L587.629 997.353H531.645L427.116 872.982Z" fill="black"/>
<path d="M647.364 731.603H694.136V997.353H647.364V731.603Z" fill="black"/>
<path d="M912.349 731.603C932.191 731.603 949.317 735.146 963.727 742.233C978.373 749.319 989.593 759.241 997.389 771.997C1005.42 784.516 1009.44 799.044 1009.44 815.58C1009.44 832.115 1005.42 846.761 997.389 859.517C989.593 872.037 978.373 881.84 963.727 888.927C949.317 896.013 932.191 899.557 912.349 899.557H792.938V859.163H910.577C926.64 859.163 939.16 855.265 948.136 847.47C957.349 839.674 961.955 829.044 961.955 815.58C961.955 802.115 957.349 791.485 948.136 783.69C939.16 775.894 926.64 771.997 910.577 771.997H797.545L818.45 748.611V997.353H771.678V731.603H912.349Z" fill="black"/>
<path d="M763.782 723.716H912.344V731.608H771.674V997.358H818.446V899.561H912.344C932.186 899.561 949.313 896.018 963.723 888.932C978.368 881.845 989.589 872.042 997.384 859.523C1005.42 846.767 1009.43 832.12 1009.43 815.584C1009.43 799.049 1005.42 784.522 997.384 772.003C989.589 759.247 978.368 749.326 963.723 742.239C949.313 735.152 932.186 731.608 912.344 731.608V723.716C933.094 723.716 951.45 727.419 967.158 735.133C982.987 742.792 995.377 753.651 1004.03 767.741C1012.96 781.671 1017.32 797.713 1017.32 815.584C1017.32 833.444 1012.97 849.564 1004.08 863.692L1004.08 863.694C995.428 877.595 983.028 888.347 967.204 896.012C951.486 903.743 933.115 907.453 912.344 907.453H826.338V1005.25H763.782V723.716ZM954.059 815.584C954.059 804.497 950.49 796.352 943.701 790.299L943.034 789.72L942.996 789.688L942.957 789.653C936.075 783.677 926.056 780.12 911.951 779.904L910.573 779.894H826.338V851.276H910.573V859.168H818.446V772.003H910.573C926.636 772.003 939.156 775.9 948.132 783.696C957.344 791.491 961.95 802.12 961.95 815.584C961.95 829.049 957.345 839.68 948.132 847.475C939.436 855.027 927.415 858.921 912.068 859.157L910.573 859.168V851.276C925.407 851.276 935.853 847.685 942.957 841.516L943.034 841.45C950.256 835.339 954.059 827.03 954.059 815.584Z" fill="black"/>
<path d="M647.36 731.608V997.358H694.13V731.608H647.36ZM702.022 1005.25H639.468V723.716H702.022V1005.25Z" fill="black"/>
<path d="M334.18 723.706H396.344L396.736 723.215V723.706H486.993V731.598H342.071V997.349H388.844V891.049H442.3L531.639 997.349H587.625L497.087 890.71C511.593 889.714 524.527 886.52 535.891 881.127C550.064 874.276 561.05 864.947 568.845 853.136C576.626 841.465 580.638 828.13 580.881 813.134L580.893 811.677C580.893 795.614 576.877 781.677 568.845 769.866C561.05 757.819 550.064 748.489 535.891 741.875C521.954 735.024 505.655 731.598 486.993 731.598V723.706C506.56 723.706 524.044 727.291 539.228 734.723C554.561 741.879 566.705 752.099 575.371 765.429C584.401 778.708 588.784 794.236 588.785 811.677L588.771 813.269C588.504 829.659 584.092 844.487 575.409 857.511C566.747 870.624 554.62 880.84 539.326 888.232L539.301 888.244L539.274 888.257C531.034 892.168 522.114 894.975 512.551 896.729L604.676 1005.24H527.963L438.624 898.941H396.736V1005.24H334.18V723.706ZM525.52 811.677C525.519 801.713 522.115 794.622 515.53 789.451L514.882 788.956L514.792 788.888L514.703 788.817C507.773 783.346 497.84 780.092 484.084 779.894L482.741 779.885H396.736V843.471H482.741V851.363H388.844V771.993H482.741C498.332 771.993 510.617 775.536 519.593 782.623C528.805 789.473 533.411 799.158 533.411 811.677L533.398 812.822C533.119 824.564 528.518 833.868 519.593 840.734C510.617 847.82 498.332 851.363 482.741 851.363V843.471C497.196 843.471 507.55 840.187 514.703 834.539L514.78 834.478C521.926 828.981 525.52 821.672 525.52 811.677Z" fill="black"/>
<path d="M22.0324 731.608V772.712H131.875V997.358H178.647V772.712H288.49V731.608H22.0324ZM296.382 780.603H186.539V1005.25H123.983V780.603H14.1406V723.716H296.382V780.603Z" fill="black"/>
</svg>
